<svg width="140" height="138" viewBox="0 0 140 138" fill="none" xmlns="http://www.w3.org/2000/svg" xmlns:xlink="http://www.w3.org/1999/xlink">
<path d="M2.988,67.791C2.984,79.32 6.082,90.578 11.972,100.5L2.424,134.403L38.098,125.306C47.965,130.53 59.02,133.267 70.254,133.268L70.284,133.268C107.37,133.268 137.559,103.918 137.575,67.842C137.582,50.361 130.589,33.923 117.883,21.556C105.179,9.19 88.283,2.376 70.281,2.368C33.191,2.368 3.003,31.717 2.988,67.791Z" fill="url(#pf_0_4269_89)"/>
<path d="M0.585,67.769C0.581,79.714 3.79,91.374 9.89,101.652L0,136.77L36.953,127.347C47.135,132.746 58.598,135.592 70.263,135.596L70.293,135.596C108.71,135.596 139.984,105.19 140,67.824C140.007,49.714 132.762,32.685 119.602,19.875C106.44,7.066 88.94,0.007 70.293,0C31.87,0 0.6,30.402 0.585,67.769ZM22.591,99.882L21.212,97.752C15.411,88.782 12.35,78.417 12.354,67.774C12.367,36.715 38.357,11.446 70.315,11.446C85.792,11.452 100.336,17.32 111.276,27.966C122.215,38.613 128.235,52.766 128.231,67.819C128.216,98.878 102.226,124.15 70.293,124.15L70.27,124.15C59.872,124.145 49.675,121.429 40.782,116.297L38.665,115.076L16.737,120.668L22.591,99.881L22.591,99.882Z" fill="url(#pf_0_4269_90)"/>
<path d="M52.871,39.437C51.566,36.617 50.193,36.56 48.952,36.51C47.936,36.468 46.774,36.471 45.614,36.471C44.452,36.471 42.565,36.896 40.97,38.59C39.373,40.286 34.873,44.383 34.873,52.717C34.873,61.052 41.115,69.106 41.985,70.237C42.856,71.366 54.034,89.016 71.737,95.806C86.451,101.449 89.445,100.326 92.638,100.043C95.832,99.761 102.943,95.947 104.394,91.991C105.846,88.036 105.846,84.646 105.411,83.938C104.975,83.232 103.814,82.808 102.072,81.961C100.33,81.114 91.767,77.016 90.17,76.45C88.574,75.886 87.413,75.604 86.251,77.3C85.089,78.993 81.754,82.808 80.737,83.938C79.722,85.07 78.705,85.211 76.964,84.364C75.221,83.514 69.612,81.727 62.957,75.957C57.779,71.467 54.283,65.922 53.267,64.226C52.251,62.532 53.158,61.614 54.032,60.77C54.814,60.011 55.774,58.792 56.646,57.803C57.514,56.814 57.804,56.108 58.385,54.979C58.966,53.848 58.675,52.859 58.241,52.011C57.804,51.164 54.42,42.787 52.871,39.437Z" fill="#FFFFFF"/>
<defs>
<linearGradient id="pf_0_4269_89" x1="70" y1="134.403" x2="70" y2="2.368" gradientUnits="userSpaceOnUse">
<stop stop-color="#1FAF38"/>
<stop offset="1" stop-color="#60D669"/>
</linearGradient>
<linearGradient id="pf_0_4269_90" x1="70" y1="136.77" x2="70" y2="0" gradientUnits="userSpaceOnUse">
<stop stop-color="#F9F9F9"/>
<stop offset="1" stop-color="#FFFFFF"/>
</linearGradient>
</defs>
</svg>
