<svg width="128" height="124" viewBox="0 0 128 124" fill="none" xmlns="http://www.w3.org/2000/svg" xmlns:xlink="http://www.w3.org/1999/xlink">
<path d="M128,62.379C128,27.928 99.346,0 64,0C28.654,0 0,27.928 0,62.379C0,93.514 23.404,119.321 54,124L54,80.41L37.75,80.41L37.75,62.379L54,62.379L54,48.636C54,33.002 63.555,24.367 78.174,24.367C85.176,24.367 92.5,25.585 92.5,25.585L92.5,40.936L84.43,40.936C76.479,40.936 74,45.745 74,50.678L74,62.379L91.75,62.379L88.912,80.41L74,80.41L74,124C104.596,119.321 128,93.514 128,62.379Z" fill="#1877F2"/>
</svg>
