<svg width="110" height="94" viewBox="0 0 110 94" fill="none" xmlns="http://www.w3.org/2000/svg" xmlns:xlink="http://www.w3.org/1999/xlink">
<path d="M110,11.128C105.881,13.046 101.512,14.306 97.038,14.864C101.698,11.927 105.276,7.277 106.961,1.735C102.531,4.5 97.684,6.447 92.63,7.494C88.513,2.882 82.649,0 76.157,0C63.694,0 53.589,10.625 53.589,23.73C53.589,25.59 53.789,27.401 54.173,29.138C35.417,28.148 18.789,18.701 7.657,4.344C5.715,7.849 4.602,11.925 4.602,16.274C4.602,24.507 8.587,31.77 14.642,36.026C11.058,35.908 7.553,34.89 4.42,33.057C4.418,33.157 4.418,33.256 4.418,33.356C4.418,44.853 12.198,54.445 22.521,56.625C19.198,57.575 15.712,57.714 12.33,57.031C15.201,66.459 23.536,73.32 33.411,73.512C25.688,79.876 15.956,83.67 5.384,83.67C3.562,83.67 1.766,83.557 0,83.338C9.987,90.071 21.85,94 34.594,94C76.105,94 98.804,57.84 98.804,26.482C98.804,25.453 98.783,24.429 98.739,23.412C103.157,20.053 106.97,15.893 110,11.128Z" fill="#55ACEE"/>
</svg>
