<svg width="160" height="158" viewBox="0 0 160 158" fill="none" xmlns="http://www.w3.org/2000/svg" xmlns:xlink="http://www.w3.org/1999/xlink">
<path d="M133.76,101.881C136.56,94.567 138.08,86.738 138.08,78.133C138.08,71.938 137.2,66.001 135.68,60.495C130.48,61.785 125.04,62.473 119.36,62.473C107.728,62.487 96.263,59.492 85.932,53.742C75.601,47.992 66.707,39.655 60,29.433C52.825,48.106 39.289,63.126 22.16,71.422C21.84,73.573 21.84,75.896 21.84,78.133C21.84,86.348 23.344,94.482 26.267,102.071C29.19,109.661 33.474,116.556 38.875,122.365C49.782,134.096 64.575,140.686 80,140.686C88.4,140.686 96.48,138.707 103.76,135.18C108.32,144.558 110.4,149.204 110.24,149.204C97.12,153.937 86.96,156.26 80,156.26C60.64,156.26 42.16,148.086 28.56,133.373C20.288,124.503 14.139,113.609 10.64,101.623L0,101.623L0,62.473L8.72,62.473C11.362,48.642 17.436,35.838 26.298,25.42C35.159,15.002 46.478,7.358 59.052,3.3C71.627,-0.758 84.988,-1.08 97.719,2.37C110.45,5.82 122.074,12.912 131.36,22.894C141.442,33.694 148.318,47.469 151.12,62.473L160,62.473L160,101.623L159.52,101.623L131.04,129.759L88.64,124.596L88.64,110.227L127.28,110.227L133.76,101.881ZM58.16,76.154C60.56,76.154 62.88,77.187 64.56,79.08C66.248,80.91 67.196,83.385 67.196,85.963C67.196,88.542 66.248,91.016 64.56,92.847C62.88,94.653 60.56,95.686 58.16,95.686C53.12,95.686 49.04,91.384 49.04,85.963C49.04,80.542 53.12,76.154 58.16,76.154ZM101.76,76.154C106.8,76.154 110.8,80.542 110.8,85.963C110.8,91.384 106.8,95.686 101.76,95.686C96.72,95.686 92.64,91.384 92.64,85.963C92.64,83.362 93.601,80.867 95.311,79.027C97.022,77.188 99.341,76.154 101.76,76.154Z" fill="#000000"/>
</svg>
