<svg width="52" height="52" viewBox="0 0 52 52" fill="none" xmlns="http://www.w3.org/2000/svg" xmlns:xlink="http://www.w3.org/1999/xlink">
<path d="M47.274,51.211L36.143,40.061C34.392,41.58 32.35,42.763 30.017,43.611C27.683,44.458 25.204,44.882 22.578,44.882C16.277,44.882 10.939,42.69 6.563,38.307C2.188,33.924 0,28.636 0,22.441C0,16.246 2.188,10.957 6.563,6.574C10.939,2.192 16.248,0 22.491,0C28.675,0 33.94,2.192 38.287,6.574C42.633,10.957 44.806,16.246 44.806,22.441C44.806,24.954 44.398,27.379 43.581,29.717C42.764,32.054 41.539,34.246 39.906,36.291L51.212,47.442C51.737,47.909 52,48.508 52,49.239C52,49.969 51.708,50.627 51.125,51.211C50.6,51.737 49.958,52 49.2,52C48.441,52 47.799,51.737 47.274,51.211ZM22.491,39.622C27.216,39.622 31.242,37.942 34.567,34.582C37.893,31.221 39.556,27.175 39.556,22.441C39.556,17.707 37.893,13.66 34.567,10.3C31.242,6.94 27.216,5.26 22.491,5.26C17.707,5.26 13.637,6.94 10.283,10.3C6.928,13.66 5.251,17.707 5.251,22.441C5.251,27.175 6.928,31.221 10.283,34.582C13.637,37.942 17.707,39.622 22.491,39.622Z" fill="#ADADAD"/>
</svg>
