<svg width="16" height="30" viewBox="0 0 16 30" fill="none" xmlns="http://www.w3.org/2000/svg" xmlns:xlink="http://www.w3.org/1999/xlink">
<path d="M12.689,27.495L0.626,15.083C0.483,14.935 0.382,14.775 0.323,14.603C0.262,14.43 0.232,14.246 0.232,14.049C0.232,13.852 0.262,13.667 0.323,13.495C0.382,13.322 0.483,13.162 0.626,13.014L12.689,0.566C13.023,0.221 13.441,0.049 13.942,0.049C14.443,0.049 14.873,0.233 15.231,0.603C15.589,0.972 15.768,1.403 15.768,1.896C15.768,2.388 15.589,2.819 15.231,3.189L4.707,14.049L15.231,24.909C15.565,25.254 15.732,25.678 15.732,26.183C15.732,26.688 15.553,27.125 15.195,27.495C14.837,27.864 14.419,28.049 13.942,28.049C13.465,28.049 13.047,27.864 12.689,27.495Z" transform="rotate(-180 8 14.049)" fill="#FFFFFF"/>
</svg>
