<svg width="134" height="94" viewBox="0 0 134 94" fill="none" xmlns="http://www.w3.org/2000/svg" xmlns:xlink="http://www.w3.org/1999/xlink">
<path d="M7.444,92.887C5.335,92.887 3.568,92.141 2.144,90.65C0.715,89.163 0,87.32 0,85.119C0,82.918 0.715,81.075 2.144,79.589C3.568,78.097 5.335,77.352 7.444,77.352L126.556,77.352C128.665,77.352 130.432,78.097 131.856,79.589C133.285,81.075 134,82.918 134,85.119C134,87.32 133.285,89.163 131.856,90.65C130.432,92.141 128.665,92.887 126.556,92.887L7.444,92.887ZM7.444,54.049C5.335,54.049 3.568,53.303 2.144,51.812C0.715,50.326 0,48.482 0,46.281C0,44.08 0.715,42.234 2.144,40.743C3.568,39.257 5.335,38.514 7.444,38.514L126.556,38.514C128.665,38.514 130.432,39.257 131.856,40.743C133.285,42.234 134,44.08 134,46.281C134,48.482 133.285,50.326 131.856,51.812C130.432,53.303 128.665,54.049 126.556,54.049L7.444,54.049ZM7.444,15.211C5.335,15.211 3.568,14.468 2.144,12.982C0.715,11.49 0,9.644 0,7.443C0,5.242 0.715,3.396 2.144,1.905C3.568,0.419 5.335,-0.324 7.444,-0.324L126.556,-0.324C128.665,-0.324 130.432,0.419 131.856,1.905C133.285,3.396 134,5.242 134,7.443C134,9.644 133.285,11.49 131.856,12.982C130.432,14.468 128.665,15.211 126.556,15.211L7.444,15.211Z" fill="#FFFFFF"/>
</svg>
